<?xml version="1.0" standalone="no"?>
<!DOCTYPE svg PUBLIC "-//W3C//DTD SVG 20010904//EN"
 "http://www.w3.org/TR/2001/REC-SVG-20010904/DTD/svg10.dtd">
<svg version="1.0" xmlns="http://www.w3.org/2000/svg"
 width="1920.000000pt" height="885.000000pt" viewBox="0 0 1920.000000 885.000000"
 preserveAspectRatio="xMidYMid meet">

<g transform="translate(0.000000,885.000000) scale(0.100000,-0.100000)"
fill="#000000" stroke="none">
<path d="M10600 6005 c0 -2720 1 -2845 18 -2845 36 0 52 35 52 115 0 73 1 75
25 75 22 0 25 4 25 35 0 31 3 35 26 35 22 0 25 4 21 21 -3 12 0 22 9 26 8 3
14 14 14 24 0 10 5 19 10 19 6 0 10 11 10 24 0 21 5 25 38 28 l37 3 3 67 3 68
34 0 c25 0 35 5 40 20 3 11 13 20 21 20 9 0 14 11 14 34 0 32 3 35 33 38 31 3
32 5 35 50 l3 47 47 3 47 3 3 42 c3 42 3 42 45 45 42 3 42 3 45 46 3 36 6 42
25 42 55 0 67 10 67 56 l0 43 48 3 47 3 3 42 c3 42 3 42 45 45 42 3 42 3 45
45 3 42 3 42 45 45 l42 3 3 48 3 47 50 0 49 0 0 45 0 45 90 0 c53 0 90 4 90
10 0 6 16 10 35 10 32 0 35 2 35 30 0 31 1 32 83 45 36 6 37 7 37 50 l0 45 45
0 c45 0 45 0 45 35 0 34 1 35 38 35 26 0 42 6 52 20 9 13 26 20 47 20 18 0 33
5 33 11 0 14 25 39 39 39 18 0 12 38 -6 43 -17 4 -17 5 0 6 9 0 17 5 17 10 0
6 15 11 33 13 24 2 33 8 35 26 3 19 9 22 48 22 l44 0 0 45 0 45 45 0 c41 0 45
2 45 25 0 20 5 25 25 25 14 0 25 5 25 10 0 6 11 10 25 10 16 0 25 6 25 15 0 8
9 15 20 15 11 0 20 5 20 10 0 6 7 10 15 10 10 0 15 11 15 35 0 19 5 35 10 35
6 0 10 11 10 25 0 20 5 25 25 25 18 0 25 5 25 20 0 13 7 20 20 20 15 0 20 7
20 25 0 16 6 25 15 25 9 0 15 9 15 25 0 22 4 25 35 25 19 0 35 5 35 10 0 6 9
10 20 10 14 0 20 7 20 24 0 13 7 26 15 30 8 3 15 12 15 21 0 8 5 15 10 15 6 0
10 16 10 35 0 35 0 35 45 35 l45 0 0 50 c0 38 4 50 15 50 11 0 15 12 15 44 0
25 5 48 10 51 6 3 10 19 10 36 0 24 4 29 25 29 14 0 25 5 25 10 0 6 9 10 20
10 11 0 20 7 20 15 0 8 7 15 15 15 10 0 15 11 15 35 0 19 5 35 10 35 6 0 10
20 10 44 0 39 3 45 23 48 18 2 23 10 25 42 2 21 12 48 23 59 22 24 23 30 7 58
-10 17 -10 23 0 26 8 3 12 33 12 99 0 93 1 95 23 92 21 -3 22 0 25 89 3 86 4
92 25 95 21 3 22 9 25 96 2 84 4 92 22 92 18 0 20 7 20 95 0 95 0 95 25 95 25
0 25 0 25 95 0 92 1 95 23 92 l22 -2 3 185 c2 123 6 186 14 191 8 5 9 27 3 76
-5 37 -8 97 -6 133 4 128 5 175 3 205 -3 52 9 145 19 145 5 0 9 83 9 190 0
183 -1 190 -20 190 -19 0 -20 7 -20 130 l0 130 -1570 0 -1570 0 0 -2845z"/>
<path d="M14880 8733 c0 -219 -34 -807 -66 -1143 -14 -154 -101 -797 -109
-809 -1 -3 -10 -49 -19 -101 -33 -196 -134 -627 -202 -865 -39 -138 -170 -545
-190 -590 -34 -81 -52 -138 -47 -151 3 -8 0 -14 -6 -14 -17 0 -43 -67 -43
-109 0 -23 -3 -30 -9 -20 -6 10 -9 10 -9 2 0 -7 -11 -36 -24 -65 -12 -29 -29
-75 -36 -103 -8 -27 -20 -55 -28 -61 -13 -9 -12 -12 2 -17 12 -5 15 -13 11
-27 -5 -15 -2 -20 10 -20 14 0 16 8 13 45 -2 30 1 45 9 45 7 0 14 23 19 56 3
31 10 51 14 44 9 -14 80 -3 80 14 0 6 5 3 11 -6 5 -10 17 -18 26 -18 19 0 73
54 73 74 0 40 11 46 81 46 62 0 69 2 69 20 0 15 7 20 25 20 16 0 25 6 25 15 0
13 26 15 175 15 l175 0 0 35 0 35 90 0 c53 0 90 4 90 10 0 6 20 10 45 10 25 0
45 -4 45 -10 0 -5 9 -10 20 -10 11 0 20 -6 20 -14 0 -8 12 -17 28 -19 l27 -4
-27 -2 c-18 0 -28 -7 -28 -16 0 -12 18 -15 105 -15 87 0 105 -3 105 -15 0 -19
29 -19 36 0 8 21 84 21 84 0 0 -9 9 -15 25 -15 18 0 25 -5 25 -20 0 -14 7 -20
24 -20 13 0 26 6 29 13 3 10 9 10 26 0 11 -7 38 -13 60 -13 33 0 40 -4 43 -22
2 -13 11 -24 23 -27 11 -2 24 -9 28 -17 4 -8 18 -14 30 -15 21 -1 20 -2 -3 -9
-24 -8 -24 -8 -2 -9 12 -1 22 -5 22 -11 0 -5 9 -10 19 -10 10 0 21 -7 25 -15
3 -8 15 -15 26 -15 13 0 20 -7 20 -20 0 -15 7 -20 25 -20 16 0 25 -6 25 -15 0
-11 12 -15 45 -15 37 0 45 -3 45 -19 0 -15 7 -18 41 -17 29 0 43 -4 50 -17 7
-12 23 -17 54 -17 25 0 45 -4 45 -10 0 -5 9 -10 19 -10 11 0 22 -8 24 -17 4
-17 5 -17 6 0 1 18 21 25 21 7 0 -5 9 -10 20 -10 11 0 20 -4 20 -10 0 -5 15
-10 33 -10 17 0 39 -5 47 -10 11 -7 12 -10 2 -10 -10 0 -10 -3 2 -15 11 -11
37 -15 100 -15 70 0 86 -3 86 -15 0 -8 8 -15 19 -15 10 0 21 -9 24 -20 3 -14
14 -20 31 -20 14 0 26 5 26 10 0 6 18 10 39 10 33 0 40 -4 43 -23 2 -18 10
-23 43 -25 22 -2 44 -8 49 -13 6 -5 18 -9 28 -9 11 0 18 -7 18 -19 0 -22 50
-51 87 -51 12 0 23 -4 23 -10 0 -5 11 -10 25 -10 16 0 25 -6 25 -15 0 -10 10
-15 34 -15 19 0 38 -4 41 -10 3 -5 26 -10 51 -10 24 0 44 -4 44 -10 0 -6 33
-10 80 -10 64 0 80 -3 80 -15 0 -9 9 -15 25 -15 14 0 25 -4 25 -10 0 -5 16
-10 35 -10 19 0 35 -4 35 -10 0 -5 20 -10 45 -10 32 0 45 -4 45 -14 0 -25 37
-29 196 -21 98 4 154 4 154 -3 0 -14 78 -11 91 4 6 8 22 14 35 14 13 0 24 5
24 10 0 6 24 10 54 10 30 0 58 5 61 10 3 6 15 10 26 10 14 0 19 7 19 25 0 18
5 25 20 25 11 0 23 7 26 15 4 8 15 15 25 15 10 0 19 4 19 9 0 14 60 74 67 67
10 -10 33 15 33 35 0 11 7 19 18 19 21 1 122 101 122 123 0 8 7 17 15 21 8 3
15 15 15 26 0 13 7 20 20 20 13 0 20 7 20 19 0 10 7 24 15 31 8 7 15 18 15 25
0 7 9 15 20 18 12 3 20 14 20 25 0 11 7 22 15 26 8 3 15 12 15 20 0 7 9 16 20
19 15 4 20 14 20 36 0 25 4 31 21 31 17 0 20 5 17 25 -3 14 -1 28 3 31 5 3 9
14 9 25 0 16 7 19 45 19 41 0 45 2 45 25 0 20 5 25 25 25 22 0 25 4 25 35 0
19 5 35 10 35 6 0 10 9 10 19 0 13 8 21 23 23 14 2 23 11 25 26 2 14 10 22 23
22 19 0 19 29 19 1840 l0 1840 -2160 0 -2160 0 0 -117z m-640 -3713 c0 -5 -2
-10 -4 -10 -3 0 -8 5 -11 10 -3 6 -1 10 4 10 6 0 11 -4 11 -10z m160 -30 c0
-16 -7 -20 -30 -20 -23 0 -30 4 -30 20 0 16 7 20 30 20 23 0 30 -4 30 -20z
m-167 -137 c-7 -2 -19 -2 -25 0 -7 3 -2 5 12 5 14 0 19 -2 13 -5z m2527 -358
c0 -8 -7 -15 -15 -15 -8 0 -15 7 -15 15 0 8 7 15 15 15 8 0 15 -7 15 -15z"/>
<path d="M1710 6240 l0 -170 35 0 35 0 0 78 c0 80 9 102 42 102 27 0 38 -32
38 -109 l0 -71 30 0 30 0 0 91 c0 50 -4 99 -10 109 -14 27 -63 34 -99 15 l-31
-16 0 71 0 70 -35 0 -35 0 0 -170z"/>
<path d="M2603 6403 c-20 -8 -16 -51 6 -58 28 -9 51 5 51 30 0 29 -26 41 -57
28z"/>
<path d="M4057 6404 c-15 -16 -7 -53 14 -59 30 -10 58 19 43 43 -12 18 -45 28
-57 16z"/>
<path d="M4807 6404 c-15 -16 -7 -53 14 -59 30 -10 58 19 43 43 -12 18 -45 28
-57 16z"/>
<path d="M1524 6379 c-42 -12 -91 -69 -100 -114 -15 -79 14 -146 77 -177 65
-34 159 -18 159 26 0 24 -2 24 -54 19 -51 -5 -57 -4 -85 25 -25 24 -31 39 -31
72 0 33 6 48 31 72 28 29 34 30 85 25 54 -6 54 -6 54 23 0 20 -6 29 -22 34
-31 8 -77 6 -114 -5z"/>
<path d="M3270 6230 l0 -160 35 0 35 0 0 160 0 160 -35 0 -35 0 0 -160z"/>
<path d="M5610 6230 l0 -160 30 0 30 0 0 123 0 122 43 -122 c39 -116 43 -123
69 -123 25 0 29 7 70 128 l43 127 3 -127 3 -128 29 0 30 0 0 160 0 160 -48 0
-48 0 -38 -117 -39 -118 -40 118 -40 117 -49 0 -48 0 0 -160z"/>
<path d="M2463 6358 c-26 -7 -33 -14 -33 -33 0 -16 -6 -25 -15 -25 -9 0 -15
-9 -15 -25 0 -15 6 -25 14 -25 10 0 15 -19 18 -71 3 -60 7 -74 28 -91 32 -26
84 -21 88 9 2 16 -3 22 -20 25 -21 3 -23 9 -26 66 -3 61 -2 62 23 62 20 0 25
5 25 25 0 20 -5 25 -24 25 -21 0 -25 6 -28 33 -3 32 -4 33 -35 25z"/>
<path d="M2768 6358 c-20 -7 -28 -16 -28 -34 0 -17 -6 -24 -20 -24 -15 0 -20
-7 -20 -25 0 -18 5 -25 20 -25 18 0 20 -7 20 -70 0 -84 20 -113 73 -108 40 4
50 38 15 53 -20 8 -23 19 -26 68 -3 55 -2 57 23 57 20 0 25 5 25 25 0 20 -5
25 -24 25 -21 0 -25 6 -28 33 -3 32 -4 33 -30 25z"/>
<path d="M3923 6358 c-26 -7 -33 -14 -33 -33 0 -16 -6 -25 -15 -25 -9 0 -15
-9 -15 -25 0 -16 6 -25 15 -25 12 0 15 -14 15 -65 0 -57 3 -69 25 -90 24 -25
49 -31 79 -19 24 9 20 42 -6 46 -21 3 -23 9 -26 66 -3 61 -2 62 23 62 20 0 25
5 25 25 0 20 -5 25 -24 25 -21 0 -25 6 -28 33 -3 32 -4 33 -35 25z"/>
<path d="M4223 6358 c-26 -7 -33 -14 -33 -33 0 -16 -6 -25 -15 -25 -9 0 -15
-9 -15 -25 0 -15 6 -25 14 -25 10 0 15 -19 18 -71 3 -60 7 -74 28 -91 32 -26
84 -21 88 9 2 16 -3 22 -20 25 -21 3 -23 9 -26 66 -3 61 -2 62 23 62 20 0 25
5 25 25 0 20 -5 25 -24 25 -21 0 -25 6 -28 33 -3 32 -4 33 -35 25z"/>
<path d="M4673 6358 c-26 -7 -33 -14 -33 -33 0 -16 -6 -25 -15 -25 -9 0 -15
-9 -15 -25 0 -16 6 -25 15 -25 12 0 15 -14 15 -65 0 -57 3 -69 25 -90 24 -25
49 -31 79 -19 24 9 20 42 -6 46 -21 3 -23 9 -26 66 -3 61 -2 62 23 62 20 0 25
5 25 25 0 20 -5 25 -24 25 -21 0 -25 6 -28 33 -3 32 -4 33 -35 25z"/>
<path d="M2020 6291 c-15 -4 -26 -15 -28 -27 -3 -20 1 -21 49 -16 37 3 53 1
60 -9 10 -18 -7 -29 -47 -29 -70 0 -110 -74 -64 -120 26 -26 60 -25 94 1 l26
20 0 -20 c0 -17 6 -21 30 -21 l30 0 0 86 c0 81 -1 87 -29 115 -30 30 -65 36
-121 20z m90 -122 c0 -25 -22 -49 -46 -49 -32 0 -43 28 -19 46 22 17 65 18 65
3z"/>
<path d="M2230 6185 l0 -115 30 0 30 0 0 63 c0 72 18 107 56 107 20 0 24 5 24
30 0 37 -23 40 -57 8 l-23 -21 0 21 c0 18 -6 22 -30 22 l-30 0 0 -115z"/>
<path d="M2590 6185 l0 -115 35 0 35 0 0 115 0 115 -35 0 -35 0 0 -115z"/>
<path d="M2874 6283 c3 -10 24 -60 45 -112 32 -77 37 -99 28 -118 -11 -24 -40
-39 -57 -28 -6 4 -10 -6 -10 -24 0 -27 4 -31 25 -31 36 0 78 24 93 52 7 12 34
80 61 151 l49 127 -32 0 c-32 0 -33 -2 -56 -75 -13 -41 -26 -75 -30 -75 -3 0
-16 34 -28 75 l-22 75 -36 0 c-29 0 -34 -3 -30 -17z"/>
<path d="M3410 6185 l0 -115 30 0 30 0 0 74 c0 75 13 106 44 106 27 0 36 -26
36 -102 l0 -78 36 0 36 0 -4 96 c-3 86 -5 98 -27 115 -30 25 -62 24 -95 -2
l-26 -20 0 20 c0 17 -6 21 -30 21 l-30 0 0 -115z"/>
<path d="M3698 6285 c-57 -31 -47 -86 20 -118 26 -12 45 -27 42 -32 -3 -6 -26
-10 -52 -10 -43 1 -48 -1 -48 -22 0 -18 7 -23 36 -29 127 -24 188 95 69 133
-16 5 -31 17 -33 26 -3 14 5 17 42 17 38 0 46 3 46 19 0 33 -72 43 -122 16z"/>
<path d="M4050 6185 l0 -115 35 0 35 0 0 115 0 115 -35 0 -35 0 0 -115z"/>
<path d="M4352 6204 c3 -86 5 -98 27 -115 30 -25 62 -24 95 2 l26 20 0 -20 c0
-17 6 -21 35 -21 l35 0 0 115 0 115 -35 0 -35 0 0 -74 c0 -75 -13 -106 -44
-106 -27 0 -36 26 -36 102 l0 78 -36 0 -36 0 4 -96z"/>
<path d="M4800 6185 l0 -115 35 0 35 0 0 115 0 115 -35 0 -35 0 0 -115z"/>
<path d="M4984 6290 c-55 -22 -81 -103 -53 -164 16 -35 72 -60 121 -53 88 12
130 107 81 184 -24 37 -99 53 -149 33z m88 -57 c36 -32 12 -113 -34 -113 -26
0 -58 36 -58 65 0 29 32 65 57 65 9 0 25 -7 35 -17z"/>
<path d="M5210 6185 l0 -115 30 0 30 0 0 74 c0 75 13 106 44 106 27 0 36 -26
36 -102 l0 -78 36 0 36 0 -4 96 c-3 86 -5 98 -27 115 -30 25 -62 24 -95 -2
l-26 -20 0 20 c0 17 -6 21 -30 21 l-30 0 0 -115z"/>
<path d="M6070 6292 c-14 -5 -26 -17 -28 -28 -3 -18 3 -20 50 -19 40 0 53 -4
53 -15 0 -10 -15 -17 -49 -22 -55 -8 -72 -20 -81 -60 -5 -21 -1 -33 19 -52 30
-31 69 -33 96 -6 l20 20 0 -20 c0 -16 7 -20 30 -20 l30 0 0 89 c0 70 -4 93
-18 111 -19 23 -79 34 -122 22z m80 -131 c0 -25 -24 -43 -52 -39 -31 4 -36 36
-6 47 38 16 58 13 58 -8z"/>
<path d="M6270 6185 l0 -115 35 0 34 0 3 81 c2 65 7 84 21 93 12 8 22 8 35 0
13 -9 18 -28 20 -93 l3 -81 34 0 35 0 0 68 c0 89 -15 140 -45 154 -27 12 -67
5 -89 -18 -15 -14 -16 -14 -16 5 0 17 -6 21 -35 21 l-35 0 0 -115z"/>
<path d="M6580 6291 c-15 -4 -26 -15 -28 -27 -3 -20 1 -21 49 -16 37 3 53 1
60 -9 10 -18 -7 -29 -47 -29 -70 0 -110 -74 -64 -120 26 -26 60 -25 94 1 l26
20 0 -20 c0 -17 6 -21 30 -21 l30 0 0 86 c0 81 -1 87 -29 115 -30 30 -65 36
-121 20z m90 -122 c0 -25 -22 -49 -46 -49 -32 0 -43 28 -19 46 22 17 65 18 65
3z"/>
<path d="M6840 6293 c-76 -28 -90 -172 -20 -208 37 -19 61 -19 86 0 40 30 48
5 12 -40 -20 -25 -25 -27 -75 -22 -51 5 -53 5 -53 -18 0 -20 7 -25 35 -31 42
-8 100 2 130 22 37 24 45 58 45 184 l0 120 -30 0 c-20 0 -30 -5 -30 -16 0 -14
-2 -14 -22 0 -23 16 -50 19 -78 9z m82 -60 c34 -31 11 -113 -32 -113 -46 0
-68 74 -33 112 20 22 41 23 65 1z"/>
<path d="M7103 6281 c-58 -37 -66 -138 -13 -186 42 -38 160 -27 160 14 0 18
-5 19 -50 14 -51 -6 -80 6 -80 33 0 11 18 14 75 14 l76 0 -7 38 c-13 77 -95
114 -161 73z m97 -56 c0 -11 -12 -15 -40 -15 -45 0 -51 11 -18 34 24 17 58 6
58 -19z"/>
<path d="M7310 6185 l0 -115 35 0 35 0 0 73 c0 78 9 97 47 97 19 0 23 5 23 30
0 36 -20 40 -50 10 l-20 -20 0 20 c0 16 -7 20 -35 20 l-35 0 0 -115z"/>
<path d="M5530 5630 c0 -5 5 -10 11 -10 5 0 7 5 4 10 -3 6 -8 10 -11 10 -2 0
-4 -4 -4 -10z"/>
<path d="M1422 5558 c1 -40 3 -56 5 -36 4 33 8 37 36 41 l32 4 -32 1 c-28 2
-33 6 -33 26 0 21 5 25 38 29 l37 4 -42 1 -43 2 2 -72z"/>
<path d="M1933 5560 c0 -41 2 -58 4 -37 2 20 2 54 0 75 -2 20 -4 3 -4 -38z"/>
<path d="M5583 5560 c0 -41 2 -58 4 -37 2 20 2 54 0 75 -2 20 -4 3 -4 -38z"/>
<path d="M3192 5603 c-7 -7 -8 -13 -3 -13 5 0 11 -21 13 -47 2 -31 8 -48 18
-51 12 -4 13 -2 3 9 -15 15 -18 86 -4 91 5 2 4 8 -3 14 -8 8 -15 7 -24 -3z"/>
<path d="M5462 5603 c-7 -7 -8 -13 -3 -13 5 0 11 -21 13 -47 2 -31 8 -48 18
-51 12 -4 13 -2 3 9 -15 15 -18 86 -4 91 5 2 4 8 -3 14 -8 8 -15 7 -24 -3z"/>
<path d="M1553 5593 c-7 -2 -13 -9 -13 -15 0 -6 6 -6 15 2 27 22 47 4 44 -40
-2 -21 0 -42 4 -46 4 -4 7 15 7 43 0 57 -16 73 -57 56z"/>
<path d="M1660 5585 c-7 -9 -10 -18 -6 -22 3 -3 6 -1 6 6 0 6 10 16 23 21 15
6 17 9 6 9 -9 1 -22 -6 -29 -14z"/>
<path d="M1776 5592 c-2 -4 8 -8 22 -7 38 0 35 -28 -3 -35 -24 -4 -30 -10 -30
-30 0 -22 4 -25 38 -25 37 -1 37 0 37 40 0 23 -5 46 -12 53 -14 14 -44 16 -52
4z m44 -77 c-18 -22 -50 -19 -50 4 0 14 8 21 28 23 31 3 39 -6 22 -27z"/>
<path d="M1986 5578 c-9 -12 -16 -29 -16 -38 1 -8 7 -1 15 17 7 17 22 33 32
36 15 4 15 5 1 6 -9 0 -24 -9 -32 -21z"/>
<path d="M2109 5583 c-13 -16 -12 -17 3 -4 10 7 25 11 33 7 9 -3 13 -2 10 4
-10 15 -31 12 -46 -7z"/>
<path d="M2172 5565 c-1 -23 -8 -47 -14 -54 -11 -11 -10 -12 0 -6 10 5 13 1
10 -16 -2 -20 -9 -24 -35 -24 -17 0 -29 -3 -26 -7 2 -5 14 -8 26 -8 42 0 48
13 44 86 -1 38 -4 51 -5 29z"/>
<path d="M2223 5545 c0 -33 2 -45 4 -27 2 18 2 45 0 60 -2 15 -4 0 -4 -33z"/>
<path d="M2273 5545 c0 -33 2 -45 4 -27 2 18 2 45 0 60 -2 15 -4 0 -4 -33z"/>
<path d="M2318 5584 c16 -11 22 -26 24 -57 l1 -42 4 37 c5 43 -11 78 -35 78
-13 0 -12 -3 6 -16z"/>
<path d="M2450 5585 c-7 -9 -10 -18 -6 -22 3 -3 6 -1 6 6 0 6 10 16 23 21 15
6 17 9 6 9 -9 1 -22 -6 -29 -14z"/>
<path d="M2562 5559 c-2 -55 18 -80 48 -61 14 9 20 8 23 -1 3 -7 5 15 4 48 0
46 -1 50 -4 18 -8 -80 -59 -85 -66 -6 l-3 48 -2 -46z"/>
<path d="M2732 5545 c1 -49 2 -52 5 -18 3 30 11 47 26 58 12 8 16 15 10 15 -7
0 -15 -5 -19 -11 -4 -8 -9 -7 -15 2 -5 9 -8 -9 -7 -46z"/>
<path d="M2820 5589 c-12 -8 -10 -9 8 -4 13 4 30 1 40 -7 15 -12 16 -11 3 5
-15 19 -29 21 -51 6z"/>
<path d="M2930 5585 c-7 -9 -10 -18 -6 -22 3 -3 6 -1 6 6 0 6 10 16 23 21 15
6 17 9 6 9 -9 1 -22 -6 -29 -14z"/>
<path d="M2988 5533 l-3 -68 -35 2 c-28 1 -31 0 -17 -9 10 -5 29 -7 43 -4 23
6 24 11 24 76 0 39 -2 70 -5 70 -2 0 -5 -30 -7 -67z"/>
<path d="M3043 5545 c0 -33 2 -45 4 -27 2 18 2 45 0 60 -2 15 -4 0 -4 -33z"/>
<path d="M3102 5591 c-21 -13 -10 -44 18 -51 34 -8 33 -35 -2 -35 -14 1 -24
-3 -22 -7 8 -13 41 -9 54 7 15 18 6 33 -27 46 -29 11 -25 34 5 33 12 0 19 3
16 8 -7 10 -25 10 -42 -1z"/>
<path d="M3262 5545 c1 -49 2 -52 5 -18 3 30 11 47 26 58 12 8 16 15 10 15 -7
0 -15 -5 -19 -11 -4 -8 -9 -7 -15 2 -5 9 -8 -9 -7 -46z"/>
<path d="M3349 5583 c-13 -16 -12 -17 3 -5 10 8 27 11 40 7 18 -5 20 -4 8 4
-22 15 -36 13 -51 -6z"/>
<path d="M3550 5585 c-15 -19 1 -42 32 -47 12 -2 23 -9 26 -15 6 -20 -28 -28
-52 -13 -19 12 -20 12 -7 -3 17 -21 45 -22 61 -2 15 19 -1 42 -32 47 -30 4
-34 26 -6 37 15 6 17 10 7 10 -9 1 -22 -6 -29 -14z"/>
<path d="M3660 5585 c-7 -9 -10 -18 -6 -22 3 -3 6 -1 6 6 0 6 10 16 23 21 15
6 17 9 6 9 -9 1 -22 -6 -29 -14z"/>
<path d="M3822 5525 c1 -44 3 -66 5 -48 4 29 6 31 24 20 27 -17 53 2 57 40 3
31 -18 63 -41 63 -6 0 -1 -7 11 -16 27 -18 31 -71 6 -81 -38 -14 -69 41 -42
74 7 10 8 14 1 10 -6 -4 -14 -1 -16 5 -3 7 -5 -23 -5 -67z"/>
<path d="M3960 5590 c-11 -7 -7 -9 15 -7 29 2 30 0 31 -40 1 -58 14 -68 14
-12 0 60 -23 83 -60 59z"/>
<path d="M4063 5545 c0 -33 2 -45 4 -27 2 18 2 45 0 60 -2 15 -4 0 -4 -33z"/>
<path d="M4146 5592 c-2 -4 8 -8 22 -7 38 0 35 -28 -3 -35 -24 -4 -30 -10 -30
-30 0 -22 4 -25 38 -25 37 -1 37 0 37 40 0 23 -5 46 -12 53 -14 14 -44 16 -52
4z m44 -77 c-18 -22 -50 -19 -50 4 0 14 8 21 28 23 31 3 39 -6 22 -27z"/>
<path d="M4310 5585 c-7 -9 -10 -18 -6 -22 3 -3 6 -1 6 6 0 6 10 16 23 21 15
6 17 9 6 9 -9 1 -22 -6 -29 -14z"/>
<path d="M4426 5584 c-32 -31 -15 -94 25 -94 44 0 65 63 31 93 -23 21 -36 21
-56 1z m54 -8 c15 -19 9 -56 -11 -69 -25 -16 -49 -1 -49 31 0 46 35 68 60 38z"/>
<path d="M4532 5545 c1 -57 1 -58 7 -16 7 53 33 76 54 47 12 -17 14 -17 20 -3
3 9 3 16 -1 15 -4 -1 -15 2 -25 7 -10 4 -23 2 -31 -4 -11 -9 -15 -9 -19 1 -3
7 -5 -14 -5 -47z"/>
<path d="M4643 5589 c12 -7 18 -24 19 -57 l1 -47 4 43 c4 43 -9 72 -31 72 -6
0 -3 -5 7 -11z"/>
<path d="M4716 5584 c-32 -32 -10 -94 34 -94 10 0 21 4 24 9 4 5 -3 7 -14 4
-20 -5 -50 12 -50 28 0 5 18 9 40 9 28 0 40 4 40 14 0 18 -27 46 -45 46 -7 0
-21 -7 -29 -16z m52 -6 c20 -20 14 -28 -23 -28 -19 0 -35 4 -35 8 0 12 22 32
35 32 6 0 16 -5 23 -12z"/>
<path d="M4836 5584 c-25 -25 -20 -71 10 -90 14 -10 23 -23 20 -31 -4 -8 -1
-11 5 -8 6 4 8 13 5 21 -3 8 1 17 9 20 8 4 15 10 15 15 0 5 -8 4 -19 -2 -28
-18 -51 -4 -51 29 0 41 25 60 53 42 20 -12 21 -12 8 3 -17 21 -35 22 -55 1z"/>
<path d="M4950 5590 c-11 -7 -7 -9 15 -7 29 2 30 0 31 -40 1 -58 14 -68 14
-12 0 60 -23 83 -60 59z"/>
<path d="M5053 5545 c0 -33 2 -45 4 -27 2 18 2 45 0 60 -2 15 -4 0 -4 -33z"/>
<path d="M5193 5593 c-7 -2 -13 -9 -13 -15 0 -6 6 -6 15 2 27 22 47 4 44 -40
-2 -21 0 -42 4 -46 4 -4 7 15 7 43 0 57 -16 73 -57 56z"/>
<path d="M5352 5553 c-1 -29 0 -53 2 -53 2 0 13 -3 23 -6 17 -6 17 -6 1 7 -10
8 -19 32 -21 59 l-4 45 -1 -52z"/>
<path d="M5533 5545 c0 -33 2 -45 4 -27 2 18 2 45 0 60 -2 15 -4 0 -4 -33z"/>
<path d="M5633 5545 c0 -33 2 -45 4 -27 2 18 2 45 0 60 -2 15 -4 0 -4 -33z"/>
<path d="M5708 5593 l33 -4 -36 -50 -37 -49 44 1 c41 2 41 2 10 8 l-33 6 30
40 c17 22 31 43 31 48 0 4 -17 6 -37 5 -38 -1 -38 -1 -5 -5z"/>
<path d="M5800 5590 c-11 -7 -7 -9 15 -7 29 2 30 0 31 -40 1 -58 14 -68 14
-12 0 60 -23 83 -60 59z"/>
<path d="M5903 5545 c0 -33 2 -45 4 -27 2 18 2 45 0 60 -2 15 -4 0 -4 -33z"/>
<path d="M6039 5583 c-13 -16 -12 -17 3 -4 29 22 50 6 46 -36 -3 -34 -6 -38
-30 -38 -14 1 -24 -3 -22 -7 3 -5 19 -7 35 -6 28 2 29 4 29 49 0 34 -5 49 -16
53 -24 9 -30 8 -45 -11z"/>
<path d="M2048 5549 c5 -45 -17 -61 -52 -39 -19 12 -20 12 -7 -3 16 -20 42
-22 59 -5 13 13 16 74 4 82 -4 2 -6 -13 -4 -35z"/>
<path d="M2506 5577 c3 -10 9 -15 12 -12 3 3 0 11 -7 18 -10 9 -11 8 -5 -6z"/>
<path d="M3717 5571 c4 -17 -1 -20 -38 -24 l-44 -4 48 -1 c40 -2 47 1 47 17 0
11 -4 22 -9 25 -5 4 -7 -3 -4 -13z"/>
<path d="M2800 5545 c0 -17 5 -36 12 -43 14 -14 54 -16 62 -3 3 5 -9 8 -26 7
-23 -1 -33 4 -36 17 -3 14 4 17 37 17 23 0 41 4 41 8 0 4 -16 6 -36 4 -24 -3
-39 0 -45 9 -6 10 -9 5 -9 -16z"/>
<path d="M3410 5559 c0 -7 -15 -10 -40 -7 -23 2 -40 -1 -40 -7 0 -6 18 -9 45
-7 30 3 45 9 45 18 0 8 -2 14 -5 14 -3 0 -5 -5 -5 -11z"/>
<path d="M2091 5553 c-2 -22 12 -44 33 -54 19 -9 19 -9 4 4 -10 8 -22 25 -27
38 -5 13 -10 19 -10 12z"/>
<path d="M3463 5553 c9 -2 25 -2 35 0 9 3 1 5 -18 5 -19 0 -27 -2 -17 -5z"/>
<path d="M1540 5535 c-15 -18 3 -45 29 -44 10 0 8 4 -7 10 -29 11 -24 31 9 40
22 6 22 7 3 8 -12 1 -27 -6 -34 -14z"/>
<path d="M3952 5541 c-22 -14 -10 -46 18 -48 l25 -3 -23 10 c-29 12 -24 32 9
41 20 6 21 7 4 8 -11 0 -26 -3 -33 -8z"/>
<path d="M4942 5541 c-22 -14 -10 -46 18 -48 l25 -3 -23 10 c-29 12 -24 32 9
41 20 6 21 7 4 8 -11 0 -26 -3 -33 -8z"/>
<path d="M5180 5535 c-15 -18 3 -45 29 -44 10 0 8 4 -7 10 -29 11 -24 31 9 40
22 6 22 7 3 8 -12 1 -27 -6 -34 -14z"/>
<path d="M5792 5541 c-22 -14 -10 -46 18 -48 l25 -3 -23 10 c-29 12 -24 32 9
41 20 6 21 7 4 8 -11 0 -26 -3 -33 -8z"/>
<path d="M6029 5533 c-12 -16 -12 -17 1 -7 8 7 24 14 35 17 19 4 19 5 -1 6
-12 0 -28 -7 -35 -16z"/>
<path d="M1650 5524 c0 -6 11 -21 25 -34 19 -18 22 -26 13 -32 -10 -6 -10 -8
-1 -8 16 0 26 17 13 25 -7 4 -4 13 7 23 10 9 14 14 9 10 -17 -14 -45 -9 -55
10 -6 9 -11 12 -11 6z"/>
<path d="M2443 5521 c6 -24 35 -37 54 -25 9 6 18 17 20 25 3 8 0 7 -7 -3 -6
-10 -20 -18 -30 -18 -10 0 -24 8 -30 18 -7 10 -10 11 -7 3z"/>
<path d="M2920 5520 c0 -5 9 -14 20 -20 11 -6 20 -9 20 -8 0 2 -9 11 -20 21
-11 9 -20 13 -20 7z"/>
<path d="M3652 5521 c7 -26 34 -36 60 -23 22 11 22 11 -6 5 -22 -4 -33 -1 -44
13 -8 10 -12 13 -10 5z"/>
<path d="M4300 5525 c-1 -33 50 -46 71 -17 11 14 11 15 -1 5 -20 -18 -47 -16
-59 5 -6 9 -11 12 -11 7z"/>
<path d="M3349 5508 c14 -19 46 -24 55 -9 4 5 -3 7 -14 4 -11 -3 -28 1 -38 8
-15 13 -16 12 -3 -3z"/>
<path d="M1905 5330 c-3 -6 1 -7 9 -4 18 7 21 14 7 14 -6 0 -13 -4 -16 -10z"/>
<path d="M1543 5260 c0 -41 2 -58 4 -37 2 20 2 54 0 75 -2 20 -4 3 -4 -38z"/>
<path d="M1702 5303 c-7 -7 -8 -13 -3 -13 5 0 11 -21 13 -47 2 -31 8 -48 18
-51 12 -4 13 -2 3 9 -15 15 -18 86 -4 91 5 2 4 8 -3 14 -8 8 -15 7 -24 -3z"/>
<path d="M1422 5225 c0 -53 3 -68 7 -45 4 23 9 31 14 23 19 -30 67 0 67 41 0
13 -9 31 -21 42 -16 15 -24 16 -39 6 -14 -9 -20 -8 -23 1 -3 7 -5 -24 -5 -68z
m66 53 c30 -30 -2 -93 -36 -71 -21 13 -27 50 -12 69 15 17 32 18 48 2z"/>
<path d="M1599 5283 c-13 -16 -12 -17 3 -4 29 22 50 6 46 -36 -3 -34 -6 -38
-30 -38 -14 1 -24 -3 -22 -7 3 -5 19 -7 35 -6 28 2 29 4 29 49 0 34 -5 49 -16
53 -24 9 -30 8 -45 -11z"/>
<path d="M1790 5290 c-11 -7 -7 -9 15 -7 29 2 30 0 31 -40 1 -58 14 -68 14
-12 0 60 -23 83 -60 59z"/>
<path d="M1887 5289 c8 -8 16 -8 30 0 16 9 14 10 -11 11 -22 0 -27 -3 -19 -11z"/>
<path d="M1966 5284 c-32 -32 -10 -94 34 -94 21 0 40 28 40 59 0 22 -25 51
-45 51 -7 0 -21 -7 -29 -16z m52 -6 c30 -30 -2 -93 -36 -71 -21 13 -27 50 -12
69 15 17 32 18 48 2z"/>
<path d="M2072 5245 c1 -49 2 -52 5 -18 3 30 11 47 26 58 12 8 16 15 10 15 -7
0 -15 -5 -19 -11 -4 -8 -9 -7 -15 2 -5 9 -8 -9 -7 -46z"/>
<path d="M2153 5245 c0 -33 2 -45 4 -27 2 18 2 45 0 60 -2 15 -4 0 -4 -33z"/>
<path d="M2192 5288 c10 -8 19 -31 21 -58 3 -38 4 -36 3 10 -1 47 -4 55 -21
58 -18 4 -19 3 -3 -10z"/>
<path d="M2235 5291 c-4 -7 0 -8 10 -4 10 3 21 0 27 -8 8 -12 9 -11 5 1 -5 18
-33 25 -42 11z"/>
<path d="M2336 5292 c-2 -4 8 -8 22 -7 38 0 35 -28 -3 -35 -24 -4 -30 -10 -30
-30 0 -22 4 -25 38 -25 37 -1 37 0 37 40 0 23 -5 46 -12 53 -14 14 -44 16 -52
4z m44 -77 c-18 -22 -50 -19 -50 4 0 14 8 21 28 23 31 3 39 -6 22 -27z"/>
<path d="M1589 5233 c-12 -16 -12 -17 1 -7 8 7 24 14 35 17 19 4 19 5 -1 6
-12 0 -28 -7 -35 -16z"/>
<path d="M1782 5241 c-22 -14 -10 -46 18 -48 l25 -3 -23 10 c-29 12 -24 32 9
41 20 6 21 7 4 8 -11 0 -26 -3 -33 -8z"/>
<path d="M18962 4928 c7 -19 38 -22 38 -4 0 10 -9 16 -21 16 -12 0 -19 -5 -17
-12z"/>
<path d="M1420 4685 l0 -65 43 1 c43 1 42 3 -5 13 -42 9 -38 43 5 49 l32 4
-33 1 c-29 2 -33 5 -30 25 2 16 12 24 38 28 l35 6 -42 2 -43 1 0 -65z"/>
<path d="M1900 4685 c0 -37 4 -65 10 -65 6 0 10 28 10 65 0 37 -4 65 -10 65
-6 0 -10 -28 -10 -65z"/>
<path d="M1605 4711 c-10 -9 -5 -91 5 -91 6 0 10 18 10 40 0 33 3 40 20 40 17
0 20 -7 20 -40 0 -22 5 -40 10 -40 6 0 10 18 10 40 0 33 3 40 19 40 16 0 21
-8 24 -42 l4 -43 1 48 c2 50 -15 70 -42 48 -7 -6 -16 -7 -20 -3 -8 8 -54 11
-61 3z"/>
<path d="M1767 4713 c-15 -14 -6 -23 12 -13 14 7 22 7 26 -1 8 -12 9 -11 -28
-27 -42 -18 -32 -47 16 -49 36 -1 37 0 37 36 0 20 -5 42 -12 49 -13 13 -41 16
-51 5z m41 -60 c-4 -22 -38 -30 -38 -10 0 14 13 24 33 26 5 1 7 -7 5 -16z"/>
<path d="M1863 4670 c0 -30 2 -43 4 -27 2 15 2 39 0 55 -2 15 -4 2 -4 -28z"/>
<path d="M1533 4673 c9 -2 23 -2 30 0 6 3 -1 5 -18 5 -16 0 -22 -2 -12 -5z"/>
<path d="M13987 4485 c-4 -8 -2 -17 3 -20 6 -4 10 3 10 14 0 25 -6 27 -13 6z"/>
<path d="M14545 4434 c-16 -3 -77 -16 -134 -30 -57 -14 -111 -24 -121 -21 -9
2 -22 -3 -27 -12 -6 -10 -29 -23 -52 -31 -22 -7 -41 -17 -41 -21 0 -4 -9 -10
-20 -13 -11 -3 -30 -9 -41 -12 -16 -5 -19 -3 -14 7 6 9 3 11 -9 6 -10 -4 -24
-7 -33 -7 -9 0 -13 -6 -9 -15 6 -17 -19 -21 -29 -5 -3 6 -13 10 -21 10 -8 0
-27 11 -42 25 l-27 25 -3 -31 c-3 -28 -42 -87 -42 -63 0 6 5 15 11 21 6 6 9
17 6 25 -3 8 -10 0 -17 -19 -7 -18 -16 -33 -21 -33 -5 0 -9 -7 -9 -15 0 -13
-67 -131 -112 -197 -10 -15 -18 -30 -18 -33 0 -8 -96 -166 -158 -262 -123
-188 -210 -318 -238 -356 -247 -335 -301 -403 -414 -520 -148 -155 -275 -276
-390 -374 -68 -58 -296 -243 -379 -308 -259 -203 -434 -356 -606 -530 -149
-150 -195 -202 -305 -345 -14 -18 -35 -44 -46 -59 -29 -36 -114 -160 -114
-167 0 -2 -5 -10 -11 -17 -20 -23 -109 -166 -109 -176 0 -5 -3 -11 -8 -13 -5
-2 -118 -224 -213 -419 -4 -9 -23 -54 -42 -100 -19 -46 -47 -104 -61 -129 -22
-39 -26 -57 -26 -132 l0 -88 2735 0 2735 0 0 85 0 85 70 0 70 0 0 190 0 190
-90 0 -90 0 0 280 0 280 -95 0 -95 0 0 95 0 95 -185 0 -185 0 0 95 0 95 -95 0
-95 0 0 180 0 180 95 0 95 0 0 95 0 95 90 0 c53 0 90 4 90 10 0 6 9 10 20 10
11 0 20 -4 20 -10 0 -5 7 -10 15 -10 8 0 15 5 15 10 0 6 27 10 60 10 l60 0 0
80 0 80 165 0 165 0 0 25 c0 32 27 34 33 3 l4 -23 2 23 c1 20 6 22 66 22 58 0
65 -2 65 -20 0 -16 7 -20 30 -20 23 0 30 4 30 20 0 19 7 20 90 20 72 0 90 -3
90 -14 0 -8 5 -18 11 -22 8 -4 9 0 4 15 -7 23 -5 24 178 24 73 -1 87 2 83 14
-3 8 -6 21 -6 29 0 8 -7 14 -15 14 -8 0 -15 7 -15 15 0 8 9 15 20 15 11 0 20
-7 20 -15 0 -9 7 -18 15 -21 8 -4 15 -14 15 -24 0 -14 9 -20 33 -22 24 -2 33
-8 35 -25 4 -27 21 -32 112 -35 l65 -3 3 -42 3 -43 70 0 69 0 0 -35 c0 -30 3
-35 24 -35 18 0 25 -6 28 -22 4 -29 56 -38 74 -14 10 15 12 15 18 1 3 -10 19
-15 46 -15 l40 0 0 -80 0 -80 94 0 c90 0 95 -1 98 -22 2 -19 10 -24 46 -26 42
-3 42 -3 42 -43 0 -38 -1 -39 -35 -39 -32 0 -35 -2 -34 -27 2 -24 2 -25 6 -5
6 30 63 33 63 2 0 -10 6 -23 14 -27 8 -4 16 -17 19 -28 4 -18 5 -18 6 3 1 18
7 22 31 22 23 0 30 -4 30 -20 0 -19 7 -20 90 -20 l90 0 0 -70 0 -70 95 0 c95
0 95 0 95 -25 0 -25 0 -25 95 -25 l95 0 0 -165 0 -165 90 0 90 0 0 -40 c0 -33
-3 -40 -20 -40 -17 0 -20 -7 -20 -50 0 -43 3 -50 20 -50 19 0 20 -7 20 -137 0
-76 3 -202 7 -280 l6 -143 69 0 68 0 0 44 c0 39 3 45 23 48 14 2 23 11 25 26
3 19 9 22 48 22 40 0 44 -2 44 -25 0 -14 5 -25 10 -25 6 0 10 -21 10 -46 l0
-46 34 3 c19 2 38 0 42 -4 4 -4 22 -7 41 -7 33 0 33 1 33 46 0 56 16 74 69 74
l41 0 0 1750 c0 1551 -2 1749 -15 1744 -21 -8 -19 13 3 25 9 6 12 11 6 11 -12
0 -230 -185 -297 -253 -26 -27 -55 -63 -64 -80 -8 -18 -19 -34 -23 -37 -3 -3
-21 -27 -40 -55 -78 -118 -266 -292 -385 -359 -16 -9 -43 -25 -60 -34 -86 -51
-254 -109 -400 -139 -123 -25 -442 -24 -560 2 -44 9 -104 21 -134 26 -71 13
-256 72 -361 116 -230 97 -375 186 -503 308 -46 44 -143 136 -217 205 -73 69
-157 148 -185 175 -183 177 -290 257 -479 356 -151 79 -266 124 -426 166 -126
33 -147 35 -310 38 -96 2 -188 1 -205 -1z m-525 -194 c0 -5 -7 -10 -15 -10 -8
0 -15 5 -15 10 0 6 7 10 15 10 8 0 15 -4 15 -10z m1194 -2332 c5 -10 7 -10 12
0 3 6 14 12 25 12 14 0 19 -7 19 -30 0 -28 -2 -30 -40 -30 -38 0 -40 2 -40 30
0 30 14 40 24 18z m3796 -1388 c0 -13 -7 -20 -20 -20 -13 0 -20 7 -20 20 0 13
7 20 20 20 13 0 20 -7 20 -20z"/>
<path d="M18568 4403 c7 -3 16 -2 19 1 4 3 -2 6 -13 5 -11 0 -14 -3 -6 -6z"/>
<path d="M1427 3473 c-4 -3 -7 -16 -7 -29 0 -17 9 -25 35 -34 37 -12 46 -34
19 -44 -8 -3 -24 -1 -34 4 -27 14 -34 12 -20 -5 7 -8 22 -15 34 -15 57 1 64
58 9 72 -35 9 -44 32 -17 42 8 3 24 1 35 -4 11 -6 19 -7 19 -1 0 17 -59 29
-73 14z"/>
<path d="M1743 3415 c0 -38 2 -53 4 -32 2 20 2 52 0 70 -2 17 -4 1 -4 -38z"/>
<path d="M4570 3415 l0 -65 40 0 c22 0 40 5 40 10 0 6 -13 10 -30 10 -41 0
-43 37 -2 43 l27 4 -27 2 c-21 1 -28 6 -28 21 0 16 7 20 30 20 17 0 30 5 30
10 0 6 -18 10 -40 10 l-40 0 0 -65z"/>
<path d="M5911 3418 c0 -40 3 -68 9 -68 6 0 10 18 10 41 0 33 3 40 18 37 12
-2 18 -14 20 -41 4 -49 22 -48 22 2 0 47 -20 67 -49 52 -17 -10 -20 -8 -24 17
-2 15 -5 -3 -6 -40z"/>
<path d="M6127 3474 c-15 -15 -6 -24 18 -18 30 7 34 -10 8 -38 -9 -10 -13 -21
-10 -24 11 -11 47 39 44 61 -2 20 -45 34 -60 19z"/>
<path d="M1542 3438 c-7 -7 -12 -24 -12 -38 0 -14 5 -31 12 -38 15 -15 45 -15
54 0 5 8 2 9 -9 5 -22 -8 -47 2 -47 19 0 9 12 14 35 14 38 0 44 10 19 34 -19
19 -36 20 -52 4z m48 -19 c0 -5 -12 -9 -26 -9 -22 0 -24 2 -14 14 12 15 40 11
40 -5z"/>
<path d="M1631 3395 c1 -27 3 -41 6 -30 2 11 6 30 9 43 3 14 12 22 24 22 17 0
20 -7 20 -40 0 -22 5 -40 10 -40 14 0 12 76 -2 88 -7 6 -25 10 -40 9 -27 -2
-28 -4 -27 -52z"/>
<path d="M1765 3441 c-3 -7 2 -11 14 -11 16 0 21 -8 24 -42 4 -39 4 -38 3 7
-1 38 -5 51 -18 53 -9 2 -19 -2 -23 -7z"/>
<path d="M1849 3433 c-13 -15 -12 -15 9 -4 22 12 42 8 42 -9 0 -5 -14 -11 -31
-15 -24 -5 -29 -11 -27 -28 2 -17 10 -22 36 -23 31 -1 32 0 32 41 0 30 -5 45
-16 49 -24 9 -30 8 -45 -11z m51 -48 c0 -21 -28 -31 -43 -16 -9 9 -8 14 3 21
22 14 40 12 40 -5z"/>
<path d="M4680 3435 c-10 -12 -10 -18 0 -30 7 -8 18 -15 26 -15 7 0 16 -5 20
-12 5 -8 -2 -9 -24 -5 -35 7 -44 -8 -12 -18 29 -9 60 4 60 25 0 12 -10 21 -30
25 -41 9 -39 29 1 21 27 -5 30 -4 19 9 -16 19 -44 19 -60 0z"/>
<path d="M4781 3437 c-6 -6 -11 -26 -11 -43 0 -24 5 -34 20 -39 11 -3 24 -3
30 0 5 3 10 -3 10 -14 0 -12 7 -21 15 -21 13 0 15 11 13 61 -3 61 -3 62 -35
64 -17 1 -36 -2 -42 -8z m48 -25 c12 -23 -2 -47 -23 -39 -24 10 -20 57 5 57 5
0 13 -8 18 -18z"/>
<path d="M4880 3411 c0 -43 20 -67 47 -56 16 6 16 8 -4 16 -18 6 -23 16 -23
44 0 19 -4 35 -10 35 -5 0 -10 -17 -10 -39z"/>
<path d="M4948 3413 c-5 -42 -1 -63 13 -63 5 0 9 23 9 50 0 58 -16 67 -22 13z"/>
<path d="M5008 3439 c-22 -12 -24 -62 -3 -79 8 -7 25 -10 40 -6 36 9 31 27 -5
20 -19 -4 -30 -2 -30 5 0 6 14 11 30 11 23 0 30 4 30 20 0 10 -9 24 -19 30
-23 12 -22 12 -43 -1z m42 -19 c0 -5 -9 -10 -20 -10 -11 0 -20 5 -20 10 0 6 9
10 20 10 11 0 20 -4 20 -10z"/>
<path d="M5106 3434 c-34 -34 -10 -89 35 -82 34 5 36 27 2 25 -22 -2 -29 3
-31 21 -4 27 22 40 43 22 12 -10 15 -10 15 3 0 14 -20 27 -40 27 -5 0 -16 -7
-24 -16z"/>
<path d="M5206 3427 c-32 -48 23 -103 62 -63 16 15 15 16 -14 10 -19 -3 -34
-2 -38 5 -5 7 5 11 28 11 29 0 36 4 36 20 0 18 -26 40 -49 40 -6 0 -17 -10
-25 -23z m54 -7 c0 -5 -9 -10 -20 -10 -11 0 -20 5 -20 10 0 6 9 10 20 10 11 0
20 -4 20 -10z"/>
<path d="M5300 3411 c0 -43 20 -67 47 -56 16 6 16 8 -4 16 -18 6 -23 16 -23
44 0 19 -4 35 -10 35 -5 0 -10 -17 -10 -39z"/>
<path d="M5368 3413 c-5 -42 -1 -63 13 -63 5 0 9 23 9 50 0 58 -16 67 -22 13z"/>
<path d="M5464 3435 c-18 -14 -17 -14 14 -9 41 8 43 -12 1 -21 -24 -5 -29 -11
-27 -28 2 -18 10 -22 41 -23 36 -1 37 0 37 35 0 56 -27 75 -66 46z m35 -65
c-14 -9 -29 -4 -29 10 0 12 34 18 39 7 2 -5 -3 -13 -10 -17z"/>
<path d="M5600 3435 c-16 -19 3 -45 31 -45 11 0 19 -5 19 -11 0 -8 -11 -9 -32
-5 -30 6 -32 5 -16 -10 11 -11 25 -15 42 -10 34 8 35 42 1 50 -14 4 -25 11
-25 17 0 7 10 9 27 4 23 -5 25 -4 14 9 -17 20 -45 20 -61 1z"/>
<path d="M5708 3439 c-22 -12 -24 -62 -4 -79 18 -14 58 -10 64 8 3 9 -3 11
-21 7 -14 -4 -28 -2 -31 4 -5 7 4 11 23 11 37 0 44 11 25 38 -17 24 -30 27
-56 11z m47 -19 c4 -6 -5 -10 -20 -10 -15 0 -24 4 -20 10 3 6 12 10 20 10 8 0
17 -4 20 -10z"/>
<path d="M5800 3400 c0 -58 17 -68 22 -12 2 25 8 37 18 37 10 0 16 -12 18 -37
4 -53 22 -48 22 6 0 47 -20 67 -46 45 -10 -8 -14 -8 -14 0 0 6 -4 11 -10 11
-5 0 -10 -22 -10 -50z"/>
<path d="M6024 3435 c-18 -15 -17 -16 14 -10 41 8 42 -7 1 -22 -45 -17 -36
-47 14 -50 l37 -1 0 43 c0 30 -5 45 -16 49 -23 9 -28 8 -50 -9z m35 -65 c-14
-9 -29 -4 -29 10 0 12 34 18 39 7 2 -5 -3 -13 -10 -17z"/>
<path d="M6146 3371 c-4 -7 -5 -15 -2 -18 9 -9 19 4 14 18 -4 11 -6 11 -12 0z"/>
<path d="M1445 1958 c-44 -25 -44 -31 -45 -330 0 -304 3 -327 47 -347 34 -16
4672 -16 4706 0 44 20 47 43 47 347 -1 301 -1 306 -47 330 -31 17 -4679 17
-4708 0z m2175 -273 c0 -10 -11 -15 -35 -15 -24 0 -35 -5 -35 -15 0 -10 10
-15 30 -15 20 0 30 -5 30 -15 0 -10 -10 -15 -30 -15 -20 0 -30 -5 -30 -15 0
-10 11 -15 35 -15 24 0 35 -5 35 -15 0 -11 -12 -15 -50 -15 l-50 0 0 75 0 75
50 0 c38 0 50 -4 50 -15z m180 -9 c0 -8 6 -17 13 -20 10 -5 10 -7 0 -12 -16
-7 -17 -71 -1 -76 20 -7 -1 -26 -22 -21 -24 6 -37 59 -32 126 2 20 42 24 42 3z
m-72 -28 c7 -7 12 -31 12 -55 0 -36 -3 -43 -20 -43 -17 0 -20 7 -20 40 0 29
-4 40 -15 40 -11 0 -15 -11 -15 -40 0 -33 -3 -40 -20 -40 -18 0 -20 7 -20 55
l0 55 43 0 c24 0 48 -5 55 -12z m172 -3 c0 -8 -7 -15 -15 -15 -11 0 -15 -11
-15 -40 0 -33 -3 -40 -20 -40 -18 0 -20 7 -20 55 l0 55 35 0 c24 0 35 -5 35
-15z m98 3 c7 -7 12 -31 12 -55 0 -34 -4 -43 -17 -43 -10 0 -27 -3 -39 -6 -13
-3 -28 1 -38 11 -20 20 -20 29 -1 49 9 8 11 17 6 21 -6 3 -8 12 -4 20 6 18 64
20 81 3z m92 -3 c0 -8 -7 -15 -15 -15 -11 0 -15 -11 -15 -40 0 -33 -3 -40 -20
-40 -18 0 -20 7 -20 55 l0 55 35 0 c24 0 35 -5 35 -15z"/>
<path d="M3945 1630 c-3 -5 1 -10 9 -10 9 0 16 5 16 10 0 6 -4 10 -9 10 -6 0
-13 -4 -16 -10z"/>
<path d="M3940 1580 c0 -5 7 -10 15 -10 8 0 15 5 15 10 0 6 -7 10 -15 10 -8 0
-15 -4 -15 -10z"/>
<path d="M15550 1605 c0 -20 -5 -25 -25 -25 -23 0 -25 -3 -25 -50 0 -47 2 -50
25 -50 20 0 25 -5 25 -25 0 -23 3 -25 50 -25 47 0 50 2 50 25 0 20 5 25 25 25
23 0 25 3 25 50 0 47 -2 50 -25 50 -20 0 -25 5 -25 25 0 23 -3 25 -50 25 -47
0 -50 -2 -50 -25z"/>
<path d="M1433 648 c-13 -34 -21 -63 -19 -65 2 -3 7 5 11 16 9 30 62 29 75 -1
5 -13 9 -19 9 -14 1 15 -41 126 -48 126 -3 0 -16 -28 -28 -62z m46 -5 c1 -7
-8 -13 -19 -13 -23 0 -23 0 -9 37 10 26 12 27 19 8 5 -11 9 -26 9 -32z"/>
<path d="M1750 689 c0 -16 -4 -19 -20 -14 -28 9 -50 -11 -50 -45 0 -34 17 -49
52 -47 27 2 28 3 28 65 0 34 -2 62 -5 62 -3 0 -5 -9 -5 -21z m-6 -41 c14 -23
-3 -53 -30 -53 -20 0 -31 33 -20 61 7 19 35 14 50 -8z"/>
<path d="M2050 702 c0 -5 9 -8 20 -7 29 2 33 10 5 13 -14 1 -25 -2 -25 -6z"/>
<path d="M3526 694 c-5 -14 -4 -15 9 -4 18 15 45 7 45 -14 0 -7 -7 -16 -15
-20 -8 -3 -15 -13 -15 -22 0 -12 5 -10 21 10 11 14 19 34 17 44 -4 23 -53 29
-62 6z"/>
<path d="M3660 645 c0 -37 4 -65 10 -65 6 0 10 28 10 65 0 37 -4 65 -10 65 -6
0 -10 -28 -10 -65z"/>
<path d="M2292 683 c-7 -7 -8 -13 -3 -13 5 0 11 -19 13 -42 2 -23 8 -43 16
-44 7 -1 8 0 2 3 -12 6 -13 80 -1 85 5 2 4 8 -3 14 -8 8 -15 7 -24 -3z"/>
<path d="M3368 689 c-8 -25 8 -103 22 -107 12 -4 13 -2 3 9 -15 15 -17 76 -4
81 5 2 3 8 -4 15 -9 8 -15 9 -17 2z"/>
<path d="M1623 669 c11 -7 18 -24 19 -52 l1 -42 4 38 c4 38 -9 67 -31 67 -6 0
-3 -5 7 -11z"/>
<path d="M1800 670 c-11 -7 -8 -9 14 -7 40 3 44 -20 6 -28 -25 -5 -30 -11 -28
-28 2 -12 11 -23 21 -23 12 -1 13 -1 2 3 -20 6 -19 29 1 37 27 11 36 7 31 -14
-3 -11 -1 -23 4 -26 14 -8 11 70 -3 84 -14 14 -28 15 -48 2z"/>
<path d="M1983 669 c11 -7 18 -24 19 -52 l1 -42 4 38 c4 38 -9 67 -31 67 -6 0
-3 -5 7 -11z"/>
<path d="M2050 670 c-11 -7 -8 -9 14 -7 40 3 44 -20 6 -28 -25 -5 -30 -11 -28
-28 2 -12 11 -23 21 -23 12 -1 13 -1 2 3 -20 6 -19 29 1 37 27 11 36 7 31 -14
-3 -11 -1 -23 4 -26 14 -8 11 70 -3 84 -14 14 -28 15 -48 2z"/>
<path d="M2147 662 c-33 -36 -9 -90 35 -79 32 8 42 44 22 74 -18 28 -35 29
-57 5z m53 -12 c20 -38 -19 -77 -48 -48 -23 23 -7 68 25 68 7 0 17 -9 23 -20z"/>
<path d="M2366 664 c-42 -41 6 -106 54 -74 11 8 7 9 -14 4 -19 -5 -31 -2 -36
7 -13 19 -2 29 31 29 30 0 38 17 17 38 -16 16 -33 15 -52 -4z m52 -11 c2 -9
-7 -13 -28 -13 -28 0 -31 2 -20 15 15 18 41 16 48 -2z"/>
<path d="M2498 668 c7 -7 13 -30 14 -52 l1 -41 4 37 c4 39 28 67 43 52 5 -5
10 -27 13 -49 4 -39 4 -39 5 8 2 51 -15 70 -42 48 -10 -8 -16 -9 -21 -1 -3 5
-11 10 -18 10 -8 0 -8 -3 1 -12z"/>
<path d="M2720 640 c0 -22 -4 -41 -10 -41 -31 -5 -35 -1 -41 36 l-7 40 2 -45
c1 -44 2 -45 34 -45 32 -1 32 0 32 47 0 26 -2 48 -5 48 -3 0 -5 -18 -5 -40z"/>
<path d="M2763 630 c0 -30 2 -43 4 -27 2 15 2 39 0 55 -2 15 -4 2 -4 -28z"/>
<path d="M2803 668 c9 -7 18 -31 20 -53 l4 -40 1 42 c2 46 15 61 37 43 11 -9
15 -9 15 -1 0 17 -28 25 -44 12 -10 -8 -16 -9 -21 -1 -3 5 -11 10 -18 10 -6 0
-3 -6 6 -12z"/>
<path d="M2926 671 c-4 -5 2 -7 13 -4 21 5 42 -18 22 -25 -11 -4 -11 -6 -1
-12 19 -11 4 -40 -20 -40 -22 0 -28 25 -7 33 7 3 4 6 -6 6 -14 1 -18 -5 -15
-21 2 -18 10 -23 36 -24 31 -1 32 0 32 41 0 30 -5 45 -16 49 -22 8 -32 8 -38
-3z"/>
<path d="M3072 668 c-17 -17 -15 -63 3 -78 18 -15 47 -10 53 10 5 13 3 13 -11
1 -24 -20 -47 -6 -47 28 0 32 24 48 46 30 9 -7 14 -8 14 -1 0 9 -22 22 -39 22
-4 0 -12 -5 -19 -12z"/>
<path d="M3167 662 c-33 -36 -9 -90 35 -79 32 8 42 44 22 74 -18 28 -35 29
-57 5z m53 -12 c20 -38 -19 -77 -48 -48 -23 23 -7 68 25 68 7 0 17 -9 23 -20z"/>
<path d="M3262 630 c1 -39 2 -44 5 -18 5 48 30 70 49 43 13 -17 14 -17 14 -2
0 22 -26 33 -44 18 -11 -9 -15 -9 -19 1 -3 7 -5 -12 -5 -42z"/>
<path d="M3440 669 c-12 -8 -10 -9 9 -4 29 9 50 -16 23 -27 -15 -6 -15 -7 1
-7 22 -1 18 -20 -6 -35 -12 -8 -20 -7 -29 2 -10 10 -10 15 2 22 9 6 10 10 3
10 -16 0 -24 -15 -17 -34 4 -11 17 -15 40 -13 30 2 34 5 34 30 0 55 -26 80
-60 56z"/>
<path d="M3710 630 c0 -58 17 -68 22 -12 2 29 7 37 23 37 16 0 21 -8 23 -37 4
-50 22 -49 22 1 0 48 -22 71 -51 53 -11 -7 -19 -8 -19 -2 0 5 -4 10 -10 10 -5
0 -10 -22 -10 -50z"/>
<path d="M3833 673 c-23 -9 -15 -42 12 -49 14 -3 25 -11 25 -16 0 -6 -11 -7
-26 -4 -19 5 -25 3 -22 -6 7 -20 53 -21 68 -2 12 14 12 18 -5 30 -10 8 -25 14
-32 14 -7 0 -13 5 -13 11 0 7 10 9 25 5 27 -7 35 8 9 18 -18 7 -23 7 -41 -1z"/>
<path d="M3938 669 c-21 -12 -24 -59 -6 -77 16 -16 43 -15 58 3 11 13 8 14
-19 9 -28 -6 -31 -4 -31 20 0 30 27 47 40 25 5 -7 13 -10 17 -5 4 4 -1 14 -11
22 -23 16 -25 17 -48 3z"/>
<path d="M4020 630 c0 -27 5 -50 10 -50 6 0 10 13 10 29 0 19 8 35 22 45 12 9
19 19 15 22 -4 4 -13 1 -22 -6 -10 -8 -15 -9 -15 -1 0 6 -4 11 -10 11 -5 0
-10 -22 -10 -50z"/>
<path d="M4108 669 c-22 -12 -24 -62 -3 -79 8 -7 25 -10 40 -6 36 9 31 27 -5
20 -19 -4 -30 -2 -30 5 0 6 14 11 30 11 23 0 30 4 30 20 0 10 -9 24 -19 30
-23 12 -22 12 -43 -1z m42 -19 c0 -5 -9 -10 -20 -10 -11 0 -20 5 -20 10 0 6 9
10 20 10 11 0 20 -4 20 -10z"/>
<path d="M4198 631 c17 -56 37 -65 52 -26 19 49 22 75 11 75 -6 0 -11 -4 -11
-9 0 -5 -5 -22 -11 -38 l-11 -28 -12 34 c-20 57 -37 49 -18 -8z"/>
<path d="M4299 664 c-11 -13 -9 -14 13 -9 14 4 29 2 32 -3 3 -6 -8 -13 -24
-17 -25 -5 -30 -11 -28 -28 2 -18 10 -22 41 -23 36 -1 37 -1 37 37 0 28 -5 41
-19 49 -27 14 -36 13 -52 -6z m41 -59 c-6 -8 -19 -11 -27 -8 -14 5 -14 8 2 19
22 16 40 8 25 -11z"/>
<path d="M4480 665 c-16 -19 3 -45 31 -45 11 0 19 -5 19 -11 0 -8 -11 -9 -32
-5 -30 6 -32 5 -16 -10 11 -11 25 -15 42 -10 34 8 35 42 1 50 -14 4 -25 11
-25 17 0 7 10 9 27 4 23 -5 25 -4 14 9 -17 20 -45 20 -61 1z"/>
<path d="M4588 669 c-22 -12 -24 -62 -4 -79 18 -14 58 -10 64 8 3 9 -3 11 -21
7 -14 -4 -28 -2 -31 4 -5 7 4 11 23 11 37 0 44 11 25 38 -17 24 -30 27 -56 11z
m47 -19 c4 -6 -5 -10 -20 -10 -15 0 -24 4 -20 10 3 6 12 10 20 10 8 0 17 -4
20 -10z"/>
<path d="M1543 625 c0 -27 2 -38 4 -22 2 15 2 37 0 50 -2 12 -4 0 -4 -28z"/>
<path d="M1581 623 c1 -53 6 -49 11 10 2 20 0 37 -4 37 -4 0 -8 -21 -7 -47z"/>
<path d="M1941 623 c1 -53 6 -49 11 10 2 20 0 37 -4 37 -4 0 -8 -21 -7 -47z"/>
<path d="M2461 623 c1 -53 6 -49 11 10 2 20 0 37 -4 37 -4 0 -8 -21 -7 -47z"/>
<path d="M4390 630 c0 -5 14 -10 30 -10 17 0 30 5 30 10 0 6 -13 10 -30 10
-16 0 -30 -4 -30 -10z"/>
<path d="M3545 590 c3 -5 8 -10 11 -10 2 0 4 5 4 10 0 6 -5 10 -11 10 -5 0 -7
-4 -4 -10z"/>
<path d="M18870 435 c0 -20 -5 -25 -25 -25 -20 0 -25 -5 -25 -24 0 -19 6 -24
33 -27 57 -7 77 0 77 27 0 15 -6 24 -15 24 -9 0 -15 9 -15 25 0 16 -6 25 -15
25 -9 0 -15 -9 -15 -25z"/>
</g>
</svg>
